<?xml version="1.0" encoding="UTF-8"?>
<svg version="1.1" xmlns="http://www.w3.org/2000/svg" width="188" height="50">
<path d="M0 0 C5.28 0 10.56 0 16 0 C19.37510645 10.65408604 22.73757411 21.31075752 26 32 C28.97334832 25.53742274 31.05622868 18.84171566 33.1875 12.0625 C33.55552734 10.90169922 33.92355469 9.74089844 34.30273438 8.54492188 C35.20496912 5.69760962 36.10291456 2.84893881 37 0 C42.28 0 47.56 0 53 0 C53 16.5 53 33 53 50 C49.37 50 45.74 50 42 50 C41.505 37.625 41.505 37.625 41 25 C38.36 33.25 35.72 41.5 33 50 C28.71 50 24.42 50 20 50 C19.59007812 48.62585937 19.18015625 47.25171875 18.7578125 45.8359375 C18.21359096 44.01561026 17.66931738 42.19529858 17.125 40.375 C16.85558594 39.47136719 16.58617187 38.56773438 16.30859375 37.63671875 C16.04433594 36.75371094 15.78007812 35.87070312 15.5078125 34.9609375 C15.26691895 34.15446777 15.02602539 33.34799805 14.77783203 32.51708984 C13.89616855 29.66399804 12.94432322 26.83296965 12 24 C11.67 32.58 11.34 41.16 11 50 C7.37 50 3.74 50 0 50 C0 33.5 0 17 0 0 Z " fill="#050505" transform="translate(135,0)"/>
<path d="M0 0 C1.15680267 0.00424484 1.15680267 0.00424484 2.3369751 0.00857544 C4.79251832 0.01974237 7.2476926 0.04484021 9.703125 0.0703125 C11.37108847 0.08034682 13.03905768 0.08947189 14.70703125 0.09765625 C18.78920397 0.11967025 22.871102 0.15417583 26.953125 0.1953125 C26.953125 3.4953125 26.953125 6.7953125 26.953125 10.1953125 C17.383125 10.5253125 7.813125 10.8553125 -2.046875 11.1953125 C-2.706875 12.8453125 -3.366875 14.4953125 -4.046875 16.1953125 C-3.386875 17.1853125 -2.726875 18.1753125 -2.046875 19.1953125 C0.17429903 19.65474785 0.17429903 19.65474785 2.75 19.6015625 C4.18859375 19.63443359 4.18859375 19.63443359 5.65625 19.66796875 C6.66171875 19.67699219 7.6671875 19.68601562 8.703125 19.6953125 C20.82734796 19.80581974 20.82734796 19.80581974 25.953125 23.1953125 C29.7188466 27.3505915 30.31020865 31.34617029 30.23046875 36.77734375 C29.77973531 40.70697754 28.51898229 44.1629357 25.953125 47.1953125 C21.25517403 50.07883048 17.32172697 50.60542 11.9296875 50.48828125 C11.18351166 50.48403641 10.43733582 50.47979156 9.66854858 50.47541809 C7.30469402 50.45873632 4.94171824 50.42110589 2.578125 50.3828125 C0.9674603 50.36775199 -0.64321787 50.35406598 -2.25390625 50.34179688 C-6.18523015 50.30886754 -10.11590401 50.25716012 -14.046875 50.1953125 C-14.046875 46.8953125 -14.046875 43.5953125 -14.046875 40.1953125 C-13.17885254 40.18072998 -12.31083008 40.16614746 -11.41650391 40.15112305 C-8.19948621 40.09011139 -4.98311837 40.01596859 -1.76660156 39.93286133 C-0.37381411 39.89958377 1.01910911 39.87156053 2.41210938 39.84887695 C4.41303878 39.81538561 6.41359421 39.76149945 8.4140625 39.70703125 C10.22076416 39.66775513 10.22076416 39.66775513 12.06396484 39.62768555 C13.49409912 39.41366089 13.49409912 39.41366089 14.953125 39.1953125 C17.1050687 35.96739695 17.15398943 34.91130441 16.953125 31.1953125 C16.2825708 31.17549316 15.6120166 31.15567383 14.92114258 31.13525391 C11.86892339 31.03971535 8.81736159 30.93015305 5.765625 30.8203125 C4.18297852 30.77390625 4.18297852 30.77390625 2.56835938 30.7265625 C1.54677734 30.68789063 0.52519531 30.64921875 -0.52734375 30.609375 C-1.46473389 30.5779541 -2.40212402 30.5465332 -3.36791992 30.51416016 C-8.49935518 29.90341975 -11.71356922 28.12385145 -15.046875 24.1953125 C-16.87633558 18.70693077 -17.2538407 11.5848224 -15.29296875 6.078125 C-11.45001988 0.01982914 -6.62816979 -0.09184634 0 0 Z " fill="#080808" transform="translate(99.046875,-0.1953125)"/>
<path d="M0 0 C0.89267578 0.00966797 1.78535156 0.01933594 2.70507812 0.02929688 C4.09823242 0.06700195 4.09823242 0.06700195 5.51953125 0.10546875 C6.45990234 0.11900391 7.40027344 0.13253906 8.36914062 0.14648438 C10.6903486 0.18183272 13.01126213 0.2356396 15.33203125 0.29296875 C15.33203125 4.25296875 15.33203125 8.21296875 15.33203125 12.29296875 C17.31203125 12.29296875 19.29203125 12.29296875 21.33203125 12.29296875 C25.61107273 14.66190197 25.61107273 14.66190197 27.33203125 17.29296875 C28.04780261 20.76438573 27.90135865 24.08017042 27.70703125 27.60546875 C27.66642578 29.00249023 27.66642578 29.00249023 27.625 30.42773438 C27.55455659 32.7171451 27.44694375 35.00535889 27.33203125 37.29296875 C23.37203125 37.29296875 19.41203125 37.29296875 15.33203125 37.29296875 C15.42484375 38.87078125 15.42484375 38.87078125 15.51953125 40.48046875 C15.32298845 44.47683899 14.72632609 46.16196781 12.33203125 49.29296875 C10.03549425 50.44123725 8.74889958 50.4085805 6.19921875 50.390625 C5.39355469 50.38740234 4.58789062 50.38417969 3.7578125 50.38085938 C2.49517578 50.36829102 2.49517578 50.36829102 1.20703125 50.35546875 C0.35753906 50.35095703 -0.49195313 50.34644531 -1.3671875 50.34179688 C-3.46747784 50.32999749 -5.56773205 50.31206181 -7.66796875 50.29296875 C-7.72599573 46.85553957 -7.76157361 43.41823622 -7.79296875 39.98046875 C-7.80972656 39.00400391 -7.82648437 38.02753906 -7.84375 37.02148438 C-7.85019531 36.08369141 -7.85664062 35.14589844 -7.86328125 34.1796875 C-7.87375488 33.31561279 -7.88422852 32.45153809 -7.89501953 31.5612793 C-7.66796875 29.29296875 -7.66796875 29.29296875 -5.66796875 26.29296875 C-6.32796875 25.96296875 -6.98796875 25.63296875 -7.66796875 25.29296875 C-7.75497914 21.68895394 -7.80836263 18.08520863 -7.85546875 14.48046875 C-7.88060547 13.45630859 -7.90574219 12.43214844 -7.93164062 11.37695312 C-7.94130859 10.39404297 -7.95097656 9.41113281 -7.9609375 8.3984375 C-7.97664795 7.49246826 -7.9923584 6.58649902 -8.00854492 5.65307617 C-7.66796875 3.29296875 -7.66796875 3.29296875 -6.44140625 1.4921875 C-4.14795471 -0.0586707 -2.75482979 -0.05264006 0 0 Z M-2.66796875 6.29296875 C-2.66796875 10.58296875 -2.66796875 14.87296875 -2.66796875 19.29296875 C-0.68796875 19.29296875 1.29203125 19.29296875 3.33203125 19.29296875 C3.33203125 16.98296875 3.33203125 14.67296875 3.33203125 12.29296875 C5.64203125 12.29296875 7.95203125 12.29296875 10.33203125 12.29296875 C10.33203125 9.98296875 10.33203125 7.67296875 10.33203125 5.29296875 C8.54044636 5.2660051 6.74874652 5.24658958 4.95703125 5.23046875 C3.46042969 5.21306641 3.46042969 5.21306641 1.93359375 5.1953125 C-0.65229328 5.11290273 -0.65229328 5.11290273 -2.66796875 6.29296875 Z M15.33203125 18.29296875 C13.57837485 20.63239219 13.57837485 20.63239219 12.33203125 23.29296875 C11.67203125 23.95296875 11.01203125 24.61296875 10.33203125 25.29296875 C11.98203125 25.29296875 13.63203125 25.29296875 15.33203125 25.29296875 C15.33203125 27.60296875 15.33203125 29.91296875 15.33203125 32.29296875 C17.31203125 32.29296875 19.29203125 32.29296875 21.33203125 32.29296875 C21.35889063 30.14720238 21.37836213 28.0013423 21.39453125 25.85546875 C21.40613281 24.66050781 21.41773438 23.46554688 21.4296875 22.234375 C21.67104917 19.40423534 21.67104917 19.40423534 20.33203125 18.29296875 C17.91720712 17.79236959 17.91720712 17.79236959 15.33203125 18.29296875 Z M-0.66796875 30.29296875 C-2.99663104 32.18143058 -2.99663104 32.18143058 -2.86328125 35.33203125 C-2.84007812 36.51539063 -2.816875 37.69875 -2.79296875 38.91796875 C-2.77492188 40.10648438 -2.756875 41.295 -2.73828125 42.51953125 C-2.71507812 43.43476562 -2.691875 44.35 -2.66796875 45.29296875 C-1.06417534 45.34713063 0.54014531 45.38583513 2.14453125 45.41796875 C3.03785156 45.44117188 3.93117188 45.464375 4.8515625 45.48828125 C7.58605839 45.47582702 7.58605839 45.47582702 10.33203125 43.29296875 C10.99883493 40.33576247 10.99883493 40.33576247 10.33203125 37.29296875 C7.9742853 35.61162587 7.9742853 35.61162587 5.33203125 34.29296875 C4.01953125 32.10546875 4.01953125 32.10546875 3.33203125 30.29296875 C2.01203125 30.29296875 0.69203125 30.29296875 -0.66796875 30.29296875 Z " fill="#CB0000" transform="translate(7.66796875,-0.29296875)"/>
<path d="M0 0 C13.86 0 27.72 0 42 0 C42 2.97 42 5.94 42 9 C37.05 9 32.1 9 27 9 C27 22.53 27 36.06 27 50 C23.37 50 19.74 50 16 50 C16 36.47 16 22.94 16 9 C10.72 9 5.44 9 0 9 C0 6.03 0 3.06 0 0 Z " fill="#040404" transform="translate(40,0)"/>
<path d="M0 0 C0.66 0 1.32 0 2 0 C2 11.55 2 23.1 2 35 C1.34 35 0.68 35 0 35 C-0.16829455 30.81934962 -0.32877828 26.63849262 -0.48217773 22.45727539 C-0.5353937 21.03629587 -0.59070571 19.61539319 -0.64819336 18.19458008 C-0.73067774 16.14681561 -0.80550405 14.09888898 -0.87890625 12.05078125 C-0.9260376 10.82012939 -0.97316895 9.58947754 -1.02172852 8.3215332 C-1.00242643 5.37091647 -0.70348686 2.85421437 0 0 Z " fill="#202020" transform="translate(177,15)"/>
</svg>
